<?xml version="1.0" encoding="utf-8"?>
<!-- Generator: Adobe Illustrator 24.1.0, SVG Export Plug-In . SVG Version: 6.00 Build 0)  -->
<!DOCTYPE svg PUBLIC "-//W3C//DTD SVG 1.1//EN" "http://www.w3.org/Graphics/SVG/1.1/DTD/svg11.dtd" [
	<!ENTITY ns_extend "http://ns.adobe.com/Extensibility/1.0/">
	<!ENTITY ns_ai "http://ns.adobe.com/AdobeIllustrator/10.0/">
	<!ENTITY ns_graphs "http://ns.adobe.com/Graphs/1.0/">
	<!ENTITY ns_vars "http://ns.adobe.com/Variables/1.0/">
	<!ENTITY ns_imrep "http://ns.adobe.com/ImageReplacement/1.0/">
	<!ENTITY ns_sfw "http://ns.adobe.com/SaveForWeb/1.0/">
	<!ENTITY ns_custom "http://ns.adobe.com/GenericCustomNamespace/1.0/">
	<!ENTITY ns_adobe_xpath "http://ns.adobe.com/XPath/1.0/">
]>
<svg version="1.1" id="Layer_1" xmlns:x="&ns_extend;" xmlns:i="&ns_ai;" xmlns:graph="&ns_graphs;"
	 xmlns="http://www.w3.org/2000/svg" xmlns:xlink="http://www.w3.org/1999/xlink" x="0px" y="0px" viewBox="0 0 500 500"
	 style="enable-background:new 0 0 500 500;" xml:space="preserve">
<style type="text/css">
	.st0{fill:#FFFFFF;}
</style>
<metadata>
	<sfw  xmlns="&ns_sfw;">
		<slices></slices>
		<sliceSourceBounds  bottomLeftOrigin="true" height="383.5" width="488.1" x="5.6" y="58.5"></sliceSourceBounds>
	</sfw>
</metadata>
<g id="Icon_ionic-md-megaphone" transform="translate(-2.25 -5.625)">
	<path id="Path_873" class="st0" d="M389.3,132.7l-25.2,25c34.6,34.6,34.7,90.7,0.1,125.3l-0.1,0.1l25.2,25.2
		C437.7,259.9,437.7,181.2,389.3,132.7L389.3,132.7z"/>
	<path id="Path_874" class="st0" d="M439.5,84.3L414.8,109c61.5,61.6,61.5,161.4,0,222.9l24.7,24.7c36.1-36.2,56.4-85.1,56.4-136.2
		C496,169.5,475.7,120.5,439.5,84.3z"/>
	<path id="Path_875" class="st0" d="M321.6,177V63.6h-34.9l-104.5,87.2H42.7L7.8,168.3v122l34.9,17.4l87.2,139.4h52.3l-32.7-139.4
		h32.7l104.5,69.8h34.9V264.1c20.1-1.9,34.9-20.6,34.9-43.5S341.6,178.9,321.6,177z"/>
</g>
</svg>
